<svg width="61" height="60" viewBox="0 0 61 60" fill="none" xmlns="http://www.w3.org/2000/svg">
<path d="M25.0996 18.4513C26.56 17.9375 27.7017 18.7733 28.5898 19.6564C29.843 20.9043 30.424 22.5196 30.6816 24.1622V24.1632C31.1713 27.3605 31.0684 30.5579 29.6221 33.545L29.4775 33.8331C29.3789 34.0255 29.3206 34.1644 29.2949 34.2648C29.2684 34.3684 29.2883 34.3859 29.2812 34.3741C29.2734 34.3611 29.2768 34.3853 29.377 34.4083C29.4752 34.4309 29.6232 34.4424 29.8389 34.4406C33.7739 34.4079 37.6802 34.4635 41.6094 34.4083C42.3933 34.3968 43.126 34.496 43.75 34.8019C44.3814 35.1114 44.8836 35.6233 45.2139 36.4005L45.3193 36.673C45.5401 37.3061 45.5822 37.9265 45.4355 38.5118C45.268 39.1806 44.8595 39.7799 44.2373 40.2882L44.2383 40.2892C44.066 40.4301 44.0575 40.4997 44.0576 40.5333C44.0578 40.5615 44.0651 40.6029 44.0908 40.6681C44.117 40.7345 44.1559 40.8097 44.207 40.9093L44.376 41.2579C44.7379 42.0582 44.8669 42.7683 44.7021 43.4406C44.5145 44.2061 43.9593 44.8659 43.0811 45.5294H43.0801C42.895 45.6679 42.8495 45.7332 42.8359 45.7775C42.8236 45.8178 42.8212 45.898 42.9111 46.1193L42.9121 46.1232C43.3235 47.1798 43.446 48.0479 43.1611 48.8136C42.877 49.5769 42.2101 50.1779 41.1953 50.756L41.1934 50.757C40.9843 50.8738 40.9579 50.9383 40.9512 50.965C40.9386 51.0153 40.9501 51.0979 41.0225 51.3273L41.0967 51.5822C41.4338 52.8473 41.2599 53.9849 40.6396 54.8273C40.0195 55.6693 38.9833 56.1753 37.6758 56.2374L37.4102 56.2443C31.8143 56.2443 26.2227 56.2314 20.6309 56.2589H20.6299C20.1455 56.2589 19.7006 56.1139 19.3096 55.9825C18.9041 55.8463 18.5651 55.7292 18.2314 55.7257C18.1043 55.726 18.0185 55.7718 17.9385 55.8585C17.8473 55.9574 17.7707 56.1025 17.6797 56.295C17.5944 56.4755 17.496 56.6989 17.3682 56.8956C17.2372 57.0971 17.0629 57.2918 16.8086 57.4142L16.8076 57.4132C16.2151 57.7092 15.5627 57.8657 14.9004 57.8693H4.75391C3.7151 57.8627 2.8948 57.5993 2.33398 57.0304C1.77431 56.4624 1.51467 55.6321 1.50293 54.5822V35.2941C1.50293 34.0519 1.7296 33.1282 2.3252 32.5226C2.92188 31.9159 3.83256 31.6857 5.05371 31.6857C8.22941 31.6857 11.3989 31.7101 14.5674 31.67H14.5684C15.3273 31.6598 16.037 31.7563 16.6299 32.0704C17.2321 32.3896 17.6902 32.921 17.9639 33.7286C18.0199 33.8939 18.0714 33.9531 18.0938 33.9708C18.1021 33.9774 18.1055 33.981 18.1309 33.9757C18.1707 33.9674 18.2265 33.9411 18.3096 33.8907C18.3767 33.85 18.485 33.7785 18.5732 33.7325L18.833 33.5919C21.4778 32.1061 22.7574 29.6888 23.2656 26.7091C23.5521 25.0347 23.5123 23.3546 23.5527 21.6281C23.5661 21.0609 23.5647 20.4009 23.7471 19.8273C23.9368 19.2307 24.3269 18.7196 25.0996 18.4513ZM11.5654 33.2794C11.0849 33.2398 10.9028 33.3294 10.8174 33.4337C10.7402 33.5282 10.6939 33.6856 10.6787 33.9493L10.6738 34.2501V34.2511C10.7214 37.4217 10.691 40.5965 10.6885 43.7716C10.6967 44.1149 10.6833 44.4585 10.6475 44.7999L10.6455 44.799C10.6362 44.982 10.5634 45.1563 10.4365 45.2892C10.3101 45.4214 10.1405 45.5015 9.95898 45.5197L9.95996 45.5216C9.85044 45.5394 9.73846 45.5318 9.63184 45.5011C9.52504 45.4703 9.42608 45.4165 9.34277 45.3429C9.25943 45.2692 9.19319 45.1776 9.14941 45.0753C9.10669 44.9754 9.08579 44.8675 9.08887 44.7589C9.05638 44.4266 9.0421 44.0928 9.04883 43.7589C9.04883 40.5514 9.02648 37.3358 9.06152 34.1241C9.0615 33.726 8.99381 33.5376 8.89941 33.4415C8.83179 33.3728 8.71605 33.3167 8.49707 33.3009L8.24121 33.2999C7.11987 33.3525 5.95275 33.2994 4.85742 33.3165L4.8584 33.3175C4.12462 33.3311 3.72836 33.451 3.50195 33.6779C3.27656 33.904 3.15847 34.2974 3.15723 35.0314C3.14387 41.5427 3.14387 48.0483 3.15723 54.548V54.549C3.15724 55.2662 3.28349 55.6676 3.5166 55.9005C3.75004 56.1334 4.15113 56.2574 4.8623 56.2599C8.11239 56.2749 11.3678 56.2749 14.6279 56.2599H14.6289C15.4193 56.2599 15.841 56.1318 16.0811 55.8839C16.3235 55.6336 16.444 55.1971 16.4453 54.3986L16.4375 44.7638V35.2462C16.4375 34.3755 16.3281 33.9268 16.0898 33.6759C15.8549 33.4287 15.4312 33.3087 14.5889 33.2999C13.6091 33.3 12.5796 33.3631 11.5654 33.2794ZM26.9443 20.4523C26.498 20.1181 26.1064 19.9011 25.6816 20.0665C25.4562 20.157 25.3607 20.3025 25.3105 20.4933C25.2529 20.7131 25.2624 20.9526 25.2471 21.2462V21.2472C25.1536 22.9247 25.1937 24.6844 24.9951 26.3839C24.5214 30.487 22.6366 33.7406 18.7275 35.5323L18.7285 35.5333C18.4047 35.6834 18.2693 35.858 18.2012 36.0441C18.1254 36.2515 18.1221 36.4973 18.1221 36.8263V52.4747C18.1221 53.2033 18.2727 53.6942 18.5615 54.0255C18.8486 54.3548 19.3092 54.5695 20.0244 54.6652C20.3052 54.6889 20.5876 54.6953 20.8691 54.6827L20.8779 54.6818L29.0127 54.6271H29.0146C31.8542 54.6271 34.6899 54.6421 37.5293 54.6271H37.5303C38.8192 54.6271 39.6992 53.7846 39.7275 52.7286C39.7419 52.1924 39.5533 51.7885 39.209 51.5109C38.856 51.2264 38.3113 51.053 37.583 51.047C35.5872 51.032 33.5751 51.0472 31.5732 51.0197C31.4537 51.0197 31.3503 51.0287 31.1973 51.0323C31.0611 51.0356 30.9056 51.0332 30.7588 51.0011C30.6096 50.9685 30.4508 50.9007 30.3301 50.7599C30.2083 50.6178 30.1513 50.4317 30.1475 50.213C30.1436 49.9955 30.1923 49.8073 30.3057 49.6603C30.4186 49.514 30.5726 49.4383 30.7207 49.3986C30.8663 49.3595 31.0221 49.3507 31.1602 49.3497C31.23 49.3492 31.2997 49.3512 31.3643 49.3527C31.4303 49.3541 31.491 49.3549 31.5479 49.3546H31.5498C34.2597 49.3546 36.9713 49.3546 39.6826 49.337H39.6846C40.3791 49.337 40.8793 49.1661 41.2012 48.8868C41.517 48.6127 41.6934 48.2066 41.6885 47.6622L41.6758 47.4738C41.6295 47.0484 41.4577 46.7198 41.1855 46.4865C40.8699 46.2159 40.3909 46.0485 39.7412 46.0402H39.7402C38.1571 46.0177 36.5781 46.0402 34.9854 46.0402C34.8649 46.0402 34.7664 46.0494 34.6113 46.0529C34.4758 46.0559 34.3194 46.0532 34.1729 46.0187C34.0232 45.9833 33.8641 45.9102 33.749 45.7599C33.6343 45.6099 33.5892 45.4166 33.5967 45.1935H33.5957C33.6027 44.9766 33.6632 44.7926 33.7852 44.6525C33.9058 44.514 34.0634 44.4463 34.2119 44.4122C34.3582 44.3787 34.5131 44.3736 34.6494 44.3751C34.8039 44.3768 34.9063 44.3842 35.0283 44.3829H35.0293C36.9912 44.3704 38.9553 44.3829 40.9141 44.3829C41.7076 44.3829 42.2377 44.2357 42.5684 43.9767C42.8866 43.7273 43.0614 43.3411 43.0684 42.755C43.0752 42.1719 42.9019 41.7676 42.584 41.5001C42.2976 41.2594 41.8631 41.1023 41.2529 41.0597L40.9805 41.049H35.3486C35.1364 41.0489 34.8781 41.0261 34.6738 40.8995C34.5658 40.8326 34.4734 40.737 34.4141 40.6075C34.3703 40.5121 34.349 40.4063 34.3457 40.2931L34.3477 40.1769C34.3559 40.0323 34.3953 39.9026 34.4697 39.7941C34.5452 39.6843 34.6458 39.6123 34.749 39.5656C34.9416 39.4785 35.1738 39.4683 35.3359 39.4601H35.3379C35.6347 39.4473 35.9478 39.4591 36.2256 39.4591C38.1865 39.4591 40.1466 39.4599 42.1064 39.4474H42.1084C42.4832 39.4474 42.8093 39.3789 43.0742 39.2335C43.3351 39.0904 43.5511 38.8642 43.6992 38.5187L43.7041 38.5089L43.7539 38.3956C43.8608 38.1275 43.8992 37.8359 43.8652 37.548C43.8264 37.2192 43.6949 36.9079 43.4854 36.6515L43.4814 36.6476C43.0372 36.0775 42.4071 36.0753 41.623 36.0753H28.2256C28.1359 36.0753 28.0611 36.0798 27.9521 36.0822C27.8536 36.0843 27.7423 36.0836 27.6309 36.0665C27.3955 36.0304 27.1563 35.9209 26.9932 35.6437C26.8273 35.3618 26.8569 35.0967 26.9561 34.8751C27.0434 34.68 27.2019 34.4907 27.2891 34.3693C29.5922 31.13 29.6111 27.5064 28.9492 23.7491L28.9482 23.7462C28.745 22.5124 28.1013 21.3972 27.1406 20.6056L26.9443 20.4523Z" fill="#FA8B02" stroke="#FA8B02" stroke-width="0.5"/>
<path d="M42.5356 2.13934C50.6521 2.37485 57.4655 8.10606 59.1431 16.154C60.7921 24.0617 56.6368 32.2705 49.2817 35.5222L49.2827 35.5231C49.13 35.5909 48.9575 35.6947 48.7515 35.8122C48.5546 35.9245 48.3317 36.0466 48.1089 36.1237C47.8874 36.2003 47.6328 36.2445 47.3853 36.1638C47.128 36.0798 46.9293 35.8782 46.7896 35.571C46.6515 35.2674 46.6266 34.9883 46.7417 34.7468C46.8518 34.5158 47.0641 34.3756 47.2661 34.2829C47.4703 34.1891 47.7069 34.1252 47.9116 34.07C48.1285 34.0116 48.3046 33.964 48.4321 33.905C55.2775 30.7202 58.9556 23.3413 57.27 16.0661C55.6164 8.91928 49.0887 3.85879 41.7017 3.987C38.4336 4.04253 35.2661 5.12673 32.6489 7.08466C30.0318 9.04257 28.0975 11.7749 27.1216 14.8942V14.8952C27.026 15.1988 26.9329 15.5382 26.8247 15.8552C26.7961 15.9724 26.7447 16.0834 26.6724 16.1804C26.5938 16.2855 26.4931 16.3721 26.3774 16.4343C26.2617 16.4964 26.1336 16.5324 26.0024 16.5397C25.879 16.5466 25.7559 16.5271 25.6401 16.4841C25.3862 16.4091 25.1986 16.258 25.0981 16.0456C25.0021 15.8425 25.0002 15.6138 25.0483 15.3991H25.0474C25.1317 14.9814 25.2411 14.5688 25.3735 14.1638V14.1628C26.5312 10.6371 28.7809 7.57065 31.7964 5.4079C34.8119 3.24529 38.4373 2.09838 42.1479 2.13251L42.5356 2.13934Z" fill="#FA8B02" stroke="#FA8B02" stroke-width="0.5"/>
<path d="M41.9346 8.48511C42.1678 8.46975 42.3704 8.50562 42.5361 8.60132C42.7041 8.69838 42.8102 8.84252 42.874 8.9978C42.9943 9.29078 42.9745 9.6525 42.9512 9.91577L42.9502 9.92065C42.9088 10.2997 42.9929 10.4649 43.0996 10.5603C43.2297 10.6764 43.4527 10.7475 43.8135 10.8093C45.5735 11.1101 46.72 12.177 47.3516 13.7361L47.4717 14.0544V14.0554C47.5579 14.3058 47.6915 14.6669 47.6934 15.0007C47.6943 15.175 47.6602 15.3604 47.5537 15.5271C47.4728 15.6536 47.359 15.7569 47.2129 15.8347L47.0557 15.9041C46.8093 15.9945 46.5838 16.0151 46.3857 15.9412C46.1853 15.8663 46.0618 15.7128 45.9824 15.5603C45.9048 15.411 45.8568 15.2389 45.8193 15.0916C45.7991 15.0121 45.7818 14.9403 45.7646 14.8748L45.7109 14.696C45.4088 13.8771 44.9034 13.2764 44.2451 12.908C43.5851 12.5387 42.752 12.3924 41.7803 12.5183H41.7793C40.9103 12.6297 40.2217 12.9345 39.7324 13.3835C39.2452 13.8309 38.9407 14.4351 38.8604 15.1755C38.7735 15.9689 38.9456 16.6614 39.334 17.2146C39.7228 17.7681 40.3423 18.2018 41.1846 18.4519H41.1855C41.6131 18.5741 42.0531 18.6599 42.5078 18.7566C42.9575 18.8522 43.418 18.9578 43.8633 19.1179L44.2422 19.2683C46.0826 20.0709 47.0792 21.6482 47.0723 23.6306L47.0586 24.0359C46.9973 24.9661 46.7215 25.7919 46.2314 26.4783C45.6713 27.2627 44.8429 27.8487 43.7754 28.2058H43.7744C43.4321 28.3191 43.2221 28.4284 43.0977 28.5691C42.9857 28.6958 42.9151 28.882 42.9434 29.2273C42.9655 29.4605 43.0087 29.8201 42.9229 30.1218C42.8773 30.2816 42.7922 30.4411 42.6396 30.5613C42.4873 30.6813 42.2909 30.7439 42.0566 30.7537C41.8245 30.7633 41.6238 30.7201 41.4619 30.6169C41.2985 30.5127 41.1985 30.3629 41.1406 30.2058C41.0312 29.9086 41.0589 29.5469 41.0859 29.2878C41.124 28.9168 41.0581 28.753 40.9648 28.657C40.8828 28.5725 40.7483 28.5051 40.5244 28.4451L40.2695 28.3875C38.1677 27.9723 36.7141 26.4381 36.4141 24.5291V24.5281C36.3798 24.3076 36.3457 24.0383 36.417 23.8005C36.4549 23.6743 36.5231 23.5552 36.6328 23.4558C36.7412 23.3576 36.8785 23.2896 37.041 23.2468C37.3664 23.1613 37.6391 23.2059 37.8525 23.3894C38.0426 23.5529 38.1514 23.8013 38.2354 24.0281C38.6806 25.2329 39.2432 25.9827 39.9668 26.3728C40.6903 26.7629 41.6256 26.8203 42.8779 26.5281L42.8877 26.5261L43.1348 26.4675C43.7022 26.3053 44.208 25.9711 44.5811 25.5085C45.0074 24.9797 45.2327 24.3166 45.2168 23.6375V23.6306C45.2166 22.2661 44.3531 21.1372 42.8477 20.7136C42.4405 20.5994 42.0198 20.5228 41.584 20.4382C41.1532 20.3546 40.7096 20.2637 40.2803 20.1189C38.1719 19.4073 36.9986 17.6957 37.0117 15.5144C37.012 14.4067 37.2878 13.4395 37.8486 12.6619C38.4102 11.8831 39.2442 11.3131 40.3291 10.9792H40.3301C40.692 10.8684 40.8732 10.7422 40.9688 10.6013C41.0402 10.496 41.0816 10.356 41.0859 10.1492L41.0781 9.91968C41.0573 9.67411 41.0367 9.34364 41.1328 9.06421C41.1833 8.91759 41.2687 8.77515 41.4092 8.66675C41.5496 8.55836 41.7261 8.49902 41.9336 8.48511H41.9346Z" fill="#FA8B02" stroke="#FA8B02" stroke-width="0.5"/>
<path d="M12.5576 50.192C12.8733 50.1788 13.1885 50.2307 13.4834 50.3443C13.7784 50.458 14.0471 50.6314 14.2725 50.8531C14.4978 51.0747 14.6754 51.3403 14.7939 51.6334C14.9124 51.9265 14.9699 52.2411 14.9619 52.5572L14.9609 52.5562C14.9751 52.8758 14.9256 53.195 14.8135 53.4947C14.6992 53.8 14.5234 54.0786 14.2969 54.313C14.0704 54.5473 13.7981 54.7324 13.4971 54.857C13.1971 54.9811 12.8744 55.0419 12.5498 55.0367H12.5479L12.5459 55.0377V55.0367C11.1469 55.0345 10.1415 53.9504 10.1689 52.5289C10.1616 52.2165 10.2185 51.9054 10.3359 51.6158C10.4548 51.3227 10.6327 51.0571 10.8594 50.8365C11.0862 50.6158 11.3569 50.4445 11.6533 50.3336C11.9421 50.2256 12.2498 50.179 12.5576 50.1929V50.192ZM12.6182 51.7964C12.3313 51.7964 12.1394 51.8731 12.0186 51.9859C11.8988 52.0978 11.8163 52.2757 11.8057 52.5435C11.7949 52.8159 11.8606 53.0042 11.9668 53.1246C12.0712 53.2427 12.2461 53.3308 12.5283 53.3404L12.543 53.3414L12.5566 53.3433C12.6553 53.358 12.7563 53.3502 12.8516 53.3209C12.947 53.2914 13.0351 53.2403 13.1084 53.1724C13.1815 53.1046 13.2388 53.021 13.2754 52.9283C13.3119 52.8356 13.3274 52.7357 13.3203 52.6363L13.3184 52.6109L13.3213 52.5865C13.3342 52.4873 13.3262 52.3862 13.2969 52.2906C13.2675 52.195 13.2177 52.1066 13.1514 52.0318C13.0849 51.9569 13.0027 51.8975 12.9111 51.857C12.8196 51.8165 12.7202 51.7953 12.6201 51.7964H12.6182Z" fill="#FA8B02" stroke="#FA8B02" stroke-width="0.5"/>
</svg>
