<svg width="49" height="60" viewBox="0 0 49 60" fill="none" xmlns="http://www.w3.org/2000/svg">
<path d="M34.8299 58.0564C35.6673 56.8381 36.4369 55.7999 37.1151 54.7042C37.3429 54.2826 37.6897 53.9374 38.1123 53.7115C38.5349 53.4856 39.0146 53.389 39.4917 53.4338C40.4464 53.4729 41.4064 53.3608 42.3612 53.4155C43.5273 53.4808 43.4595 53.0425 42.9769 52.2468C42.4369 51.3573 41.9751 50.4208 41.4769 49.5025C41.169 48.939 41.1038 48.3834 41.756 48.0547C42.3586 47.7495 42.7395 48.1616 43.0082 48.6521C43.736 49.9877 44.4899 51.3103 45.1604 52.6747C45.7604 53.8929 45.1264 54.9338 43.736 55.0486C42.6556 55.174 41.5669 55.2124 40.4804 55.1634C39.2725 55.0668 38.5421 55.5625 37.9786 56.5616C37.5534 57.3155 37.029 58.0173 36.5308 58.7268C35.3177 60.4512 34.0891 60.399 33.0821 58.5573C31.1856 55.0877 29.2864 51.6181 27.4421 48.1225C26.9856 47.2538 26.5917 46.706 25.5064 47.246C25.1875 47.3966 24.8387 47.4734 24.486 47.4707C24.1332 47.468 23.7857 47.3858 23.469 47.2303C22.4464 46.7295 22.0656 47.2068 21.6221 48.0521C19.796 51.5138 17.9177 54.9416 16.0525 58.3773C14.9256 60.4642 13.509 60.6312 12.4499 58.5468C11.0412 55.7764 9.02731 54.8242 6.01687 55.0355C3.63774 55.2025 3.09253 54.0573 4.24557 51.9338C5.9847 48.7251 7.72383 45.5164 9.46296 42.3077C10.2586 40.8364 10.0317 39.7851 8.61514 38.799C7.88421 38.3284 7.11852 37.9142 6.3247 37.5599C4.27427 36.5608 3.12383 34.9721 3.41861 32.6634C3.72122 30.2738 3.12644 28.2468 1.68905 26.3321C0.400353 24.6181 0.416005 22.7164 1.70992 21.0051C2.40986 20.1197 2.92231 19.101 3.21606 18.0112C3.50981 16.9214 3.57873 15.7833 3.41861 14.666C3.14209 12.4225 4.20122 10.7712 6.26209 9.88684C8.27601 9.02337 9.74992 7.72945 10.5899 5.65032C11.5421 3.3025 13.4125 2.27467 15.9064 2.62163C16.8721 2.77076 17.8582 2.71645 18.8016 2.46218C19.745 2.20792 20.6248 1.7593 21.3847 1.1451C23.4325 -0.420113 25.5847 -0.420113 27.6273 1.1451C28.4083 1.76733 29.3105 2.21979 30.2762 2.47358C31.242 2.72737 32.25 2.7769 33.236 2.61902C35.6177 2.30597 37.436 3.28423 38.3595 5.53815C39.2204 7.64076 40.6786 9.01293 42.7499 9.88945C44.8212 10.766 45.8804 12.4251 45.596 14.666C45.4376 15.7826 45.5071 16.9198 45.8003 18.0089C46.0935 19.098 46.6044 20.1163 47.3021 21.0025C48.6299 22.7712 48.5804 24.6912 47.2604 26.4442C45.8777 28.2703 45.296 30.2321 45.596 32.5329C45.9143 34.9486 44.7351 36.5921 42.5777 37.6277C41.3777 38.2042 40.0969 38.6712 39.356 39.9468C38.9673 40.6173 38.8604 41.1651 39.2934 41.8564C39.8464 42.7381 40.303 43.6825 40.7934 44.6008C41.0934 45.1616 41.1534 45.7329 40.4934 46.046C39.896 46.3303 39.523 45.9208 39.249 45.4251C39.1656 45.2738 39.0873 45.1173 38.9882 44.966C38.6412 44.366 38.4273 43.5103 37.9056 43.2364C37.3056 42.9234 36.9899 43.9225 36.4447 44.2173C35.1404 44.9268 33.7525 44.8225 32.3673 44.739C31.1334 44.666 29.9334 44.6764 28.856 45.4147C28.4673 45.6755 28.1569 45.8842 28.4621 46.4373C30.5699 50.2408 32.6438 54.0521 34.8299 58.0564ZM16.663 4.42423C14.0543 3.76684 12.5856 4.96945 11.7064 7.2938C10.9864 9.20597 9.49687 10.3773 7.65514 11.1129C5.74557 11.8773 4.86383 13.1816 5.1847 15.2868C5.36777 16.3581 5.31461 17.4564 5.02893 18.5049C4.74325 19.5535 4.23195 20.527 3.53079 21.3573C2.28122 22.886 2.27079 24.4564 3.51774 25.9825C4.22389 26.8139 4.73969 27.7897 5.02899 28.8415C5.3183 29.8933 5.37411 30.9956 5.19253 32.0712C4.88209 34.1581 5.68818 35.4808 7.6447 36.2451C8.63219 36.5974 9.52927 37.1643 10.2713 37.905C11.0134 38.6457 11.5819 39.5417 11.936 40.5286C12.6638 42.4877 14.023 43.3121 16.1099 42.9964C17.1629 42.8106 18.2437 42.8575 19.2766 43.1337C20.3095 43.41 21.2694 43.9089 22.0891 44.5955C23.696 45.8999 25.3291 45.9208 26.9438 44.6086C27.7615 43.92 28.72 43.4186 29.752 43.1396C30.784 42.8607 31.8645 42.8109 32.9177 42.9938C34.9786 43.3095 36.3586 42.5164 37.0917 40.5495C37.4444 39.5619 38.0115 38.6648 38.7521 37.9224C39.4927 37.1799 40.3885 36.6107 41.3751 36.2555C43.3186 35.5068 44.1586 34.1895 43.8456 32.1025C43.6621 31.0268 43.7161 29.9241 44.0036 28.8714C44.2911 27.8188 44.8052 26.8417 45.5099 26.0086C46.7517 24.4903 46.7725 22.9199 45.5099 21.386C44.8026 20.5547 44.2861 19.5785 43.9968 18.5261C43.7074 17.4737 43.6523 16.3707 43.8351 15.2947C44.1534 13.2077 43.3134 11.8642 41.3856 11.1208C40.3821 10.7506 39.472 10.1649 38.7193 9.40503C37.9666 8.64513 37.3896 7.72946 37.029 6.7225C36.3299 4.89641 35.0412 4.07989 33.0638 4.37467C30.7551 4.69554 28.6473 4.19206 26.8212 2.7051C25.2247 1.40076 23.6908 1.51815 22.0943 2.75989C20.4977 4.00163 18.7343 4.73467 16.663 4.42423ZM14.1977 58.0486C16.3708 54.0703 18.4212 50.2981 20.4977 46.5416C20.8082 45.9755 20.6125 45.7225 20.143 45.4042C18.8386 44.5225 17.4064 44.7051 15.969 44.7781C14.3699 44.8564 12.8099 44.7781 11.6804 43.4242C11.2134 42.8634 10.9969 43.1634 10.7569 43.5964C9.11861 46.6103 7.48209 49.6208 5.84731 52.6277C5.53948 53.1938 5.67774 53.4103 6.31166 53.4103C7.39687 53.4103 8.4847 53.4834 9.56731 53.4442C10.6499 53.4051 11.3647 53.8408 11.9151 54.7486C12.5882 55.7921 13.3369 56.8016 14.1977 58.0486Z" fill="#FA8B02"/>
</svg>
