<svg width="60" height="60" viewBox="0 0 60 60" fill="none" xmlns="http://www.w3.org/2000/svg">
<path d="M27.9905 2.01178C35.4898 2.01178 42.99 2.01178 50.4912 2.01178C51.2695 2.01178 52.0895 2.19517 52.0228 0.919755C51.9922 0.364019 52.5064 0.0333563 53.079 0.0277989C54.2353 0.0277989 55.4083 -0.0611188 56.5479 0.0833725C58.6409 0.36124 59.9918 2.10625 59.9974 4.44312C60.0085 11.0619 60.0085 17.6807 59.9974 24.2996C59.9974 31.9354 59.9974 39.5721 59.9974 47.2098C59.9974 50.4358 58.4686 51.9502 55.2248 51.953C50.4106 51.953 45.5936 51.9724 40.771 51.953C39.9649 51.953 39.3173 52.078 38.8781 52.7866C38.8309 52.8644 38.7475 52.9199 38.6975 52.995C36.3015 56.5489 32.8159 58.4745 28.816 59.6443C28.3185 59.7916 27.8265 59.9972 27.3679 59.6193C26.8509 59.1886 26.9982 58.6468 27.1622 58.0883C27.6514 56.4016 28.0961 54.7011 28.5937 53.0172C28.7966 52.3225 28.8383 51.9391 27.8738 51.9446C22.2257 51.9835 16.5776 51.9752 10.9183 51.9446C10.1929 51.9446 9.95382 52.1586 9.9705 52.8894C10.015 54.74 9.95382 56.5934 9.99552 58.4467C10.0205 59.5888 9.51743 60.0445 8.4056 60C7.38827 59.9611 6.36817 60 5.34806 60C2.12931 59.9444 0.00292969 57.8243 0.00292969 54.5482C0.00292969 43.4391 0.00292969 32.3309 0.00292969 21.2236C0.00292969 16.686 0.00292969 12.1512 0.00292969 7.60803C0.0168276 4.06522 2.05704 2.02289 5.62602 2.01455C13.0808 2.00344 20.5357 2.00251 27.9905 2.01178ZM28.0628 4.06244H5.96791C2.95762 4.06244 2.01257 5.02386 2.01257 8.08041V49.2049C2.01257 49.4355 2.01257 49.6689 2.01257 49.8995C1.97087 50.5831 2.16544 50.8776 2.87701 50.4969C3.80817 49.9968 4.82272 49.994 5.85672 49.994C13.6395 49.994 21.4224 49.994 29.2052 49.994C29.5749 49.994 29.9473 49.994 30.317 49.994C30.5051 49.9905 30.6867 49.9252 30.8339 49.8082C30.9811 49.6911 31.0857 49.5289 31.1314 49.3466C31.251 48.9798 30.9174 48.7686 30.6533 48.5824C30.2012 48.2511 29.6598 48.0633 29.0996 48.0434C28.3129 48.0239 27.5263 48.01 26.7397 48.0239C26.0531 48.0239 26.0059 47.5877 26.0448 47.0958C26.0754 46.679 25.8391 46.0455 26.5618 46.0233C28.3602 45.9705 30.2559 45.6843 31.768 46.9458C32.6018 47.6377 32.9687 47.4765 33.6192 46.7457C37.9581 41.8664 42.3637 37.0454 46.7138 32.1771C47.934 30.81 49.3516 30.2015 51.1611 30.5849C51.4196 30.6377 51.8337 30.9767 51.906 30.4126C51.9783 29.8486 51.4974 30.032 51.2222 30.0292C49.6462 30.0125 48.0702 30.0125 46.497 30.0292C45.7353 30.0292 45.0154 29.9069 45.0543 28.965C45.0905 28.098 45.8104 28.048 46.497 28.0508C47.9785 28.0508 49.4628 28.0146 50.9443 28.0508C51.7198 28.0786 52.0033 27.8451 51.9783 27.0421C51.9264 25.3749 51.9264 23.7077 51.9783 22.0405C52.0061 21.2069 51.7003 21.0207 50.9304 21.0429C49.4044 21.0902 47.8728 21.0596 46.3469 21.0429C45.6186 21.0429 45.0127 20.7984 45.046 19.9565C45.0794 19.1923 45.6798 19.0117 46.3385 19.009C47.8228 19.009 49.3043 18.9645 50.7858 19.009C51.6531 19.0395 52.0228 18.8228 51.9838 17.8641C51.9116 15.9691 51.9088 14.0657 51.9838 12.1706C52.0228 11.2092 51.6558 11.0064 50.7886 11.0397C49.2626 11.0953 47.7311 11.0647 46.2051 11.0397C45.5158 11.0397 45.0127 10.7118 45.046 9.95602C45.0794 9.26413 45.6019 9.05017 46.2134 9.03627C46.9083 9.02238 47.6032 9.0585 48.2981 9.0196C49.4878 8.95569 51.0777 9.54199 51.7559 8.74173C52.3396 8.06652 51.8615 6.51879 51.9811 5.38231C52.1006 4.24583 51.6225 4.01798 50.5913 4.02354C43.0864 4.07911 35.5815 4.06244 28.0767 4.06244H28.0628ZM57.9961 23.8466C57.9961 17.5483 57.9961 11.2555 57.9961 4.96829C58.0177 4.46216 57.97 3.95545 57.8543 3.46225C57.5096 2.28131 56.2171 1.73113 54.6189 2.03123C53.4181 2.2563 53.9879 3.22606 53.9851 3.82347C53.9499 16.2664 53.9434 28.7084 53.9657 41.1495C53.9657 42.0192 53.6266 43.0473 54.1408 43.7142C54.605 44.3144 55.6251 43.8392 56.3839 43.9921C56.4784 43.9964 56.5718 44.0133 56.6619 44.0421C57.9766 44.645 58.0294 43.9281 58.0239 42.8722C57.9766 36.5257 57.9961 30.1876 57.9961 23.8466ZM51.9616 38.5014C49.9603 40.2797 42.2581 48.9603 41.7744 49.9801C46.5748 49.9801 51.3251 50.0162 56.0754 49.9551C57.2372 49.9412 57.9683 49.1215 57.9516 47.9461C57.9349 46.7707 57.1928 46.0844 56.0059 46.001C55.172 45.9482 54.3381 45.951 53.5043 45.9788C52.3924 46.0177 51.9199 45.512 51.9449 44.3894C51.9811 42.5138 51.9616 40.6187 51.9616 38.5014ZM8.04425 54.9984C8.04425 51.5945 8.04425 51.5945 4.80882 51.9724C4.71557 51.9778 4.62274 51.9889 4.53086 52.0058C3.33842 52.3309 2.46008 53.0005 2.13487 54.2454C1.98418 54.7599 1.98561 55.3071 2.139 55.8208C2.29238 56.3345 2.59117 56.793 2.99932 57.1408C4.35297 58.3995 6.11244 58.2022 7.59952 57.8521C8.63352 57.6104 7.81633 56.1543 8.03869 55.2735C8.05076 55.1822 8.05169 55.0899 8.04147 54.9984H8.04425ZM31.8625 52.8116C32.2933 52.7782 32.4795 52.4226 32.7186 52.1586C36.4358 48.0517 40.1484 43.9402 43.8563 39.824C44.0092 39.6518 44.1565 39.4739 44.3066 39.2989C44.3589 39.2528 44.3996 39.195 44.4252 39.1303C44.4509 39.0655 44.4609 38.9956 44.4544 38.9262C44.4479 38.8569 44.4251 38.79 44.3878 38.7312C44.3505 38.6723 44.2999 38.6231 44.2399 38.5875C44.1991 38.5491 44.1508 38.5195 44.0981 38.5004C44.0454 38.4814 43.9893 38.4733 43.9333 38.4767C43.8774 38.48 43.8227 38.4948 43.7726 38.5201C43.7226 38.5454 43.6782 38.5806 43.6423 38.6236C43.445 38.8181 43.2615 39.0238 43.0864 39.2294L32.121 51.35C31.8936 51.5787 31.6879 51.828 31.5067 52.0947C31.2398 52.517 31.5623 52.6615 31.8597 52.8116H31.8625ZM46.7416 41.0244C46.622 40.8577 46.5553 40.6604 46.4191 40.591C45.8827 40.3131 45.6853 40.8216 45.4324 41.0994C41.6651 45.2452 37.9081 49.3994 34.1612 53.5618C33.8971 53.8564 33.255 54.1815 33.8471 54.6733C34.4391 55.1651 34.6504 54.451 34.9089 54.1703C38.6502 50.0635 42.3776 45.9445 46.0911 41.8136C46.3024 41.5774 46.4942 41.3217 46.7388 41.0244H46.7416ZM52.0505 34.3556C52.0391 33.94 51.8992 33.5382 51.6503 33.2052C50.9387 32.2883 49.6573 32.2132 48.7234 32.9885C47.4809 34.0222 48.754 34.3778 49.2265 34.9558C49.3974 35.1753 49.6053 35.3633 49.8408 35.5115C50.2688 35.7588 50.5023 36.573 51.1666 36.1395C51.4572 35.9463 51.6916 35.6799 51.8463 35.3672C52.001 35.0544 52.0705 34.7065 52.0478 34.3584L52.0505 34.3556ZM49.371 38.1596C49.4016 37.7261 49.1264 37.5872 48.9346 37.4066C48.3982 36.9009 47.8228 36.4368 47.303 35.9144C46.7832 35.392 46.433 35.4754 45.9494 35.9978C45.4296 36.5535 45.3712 36.9592 46.0077 37.4483C46.5637 37.8706 47.0334 38.3736 47.5615 38.8209C47.8228 39.0404 48.0869 39.4461 48.4927 39.0988C48.803 38.8045 49.0954 38.4918 49.3683 38.1624L49.371 38.1596ZM29.661 57.0185C30.5434 56.8364 31.389 56.5076 32.1627 56.046C31.6681 55.4061 31.0696 54.8538 30.3921 54.4121C29.9963 55.2309 29.7488 56.1133 29.661 57.0185Z" fill="#FA8B02"/>
</svg>
